# xmcd
#
# Track frame offsets: 
#        150
#        17500
#        43912
#        61480
#
# Disc length: 1072 seconds
#
# Revision: 1
# Processed by: cddbd v1.5.2PL0 Copyright (c) Steve Scherf et al.
# Submitted via: ExactAudioCopyFreeDBPlugin 1.0
#
DISCID=2e042e04
DTITLE=Euphoria - One in a Million
DYEAR=1992
DGENRE=Dance
TTITLE0=One in a Million (7" Radio Edit)
TTITLE1=One in a Million (12" Mix)
TTITLE2=One in a Million (Dub Mix)
TTITLE3=Bonus Track
EXTD=
EXTT0=
EXTT1=
EXTT2=
EXTT3=
PLAYORDER=
